<?xml version="1.0" encoding="iso-8859-1"?>
<!-- Uploaded to: SVG Repo, www.svgrepo.com, Generator: SVG Repo Mixer Tools -->
<!DOCTYPE svg PUBLIC "-//W3C//DTD SVG 1.1//EN" "http://www.w3.org/Graphics/SVG/1.1/DTD/svg11.dtd">
<svg fill="#000000" height="800px" width="800px" version="1.1" id="Capa_1" xmlns="http://www.w3.org/2000/svg" xmlns:xlink="http://www.w3.org/1999/xlink" 
	 viewBox="0 0 92.008 92.008" xml:space="preserve">
<g>
	<path d="M46.031,21.672c5.975,0,10.836-4.861,10.836-10.836S52.006,0,46.031,0S35.195,4.861,35.195,10.836
		S40.056,21.672,46.031,21.672z"/>
	<path d="M68.311,38.201l-8.574-11.945c-0.835-1.164-2.546-2.042-3.979-2.042h-1.313h-0.937h-15.01h-0.884h-1.366
		c-1.433,0-3.143,0.878-3.979,2.042l-8.574,11.945c-0.862,1.202-0.969,3.153-0.243,4.441l6.942,12.324
		c0.711,1.263,2.404,2.252,3.853,2.252h0.367v0.12v0.503v29.166c0,2.757,2.243,5,5,5h0.353c2.757,0,5-2.243,5-5V60.842h2.126v26.166
		c0,2.757,2.243,5,5,5h0.352c2.757,0,5-2.243,5-5V57.842v-0.503v-0.12h0.314c1.449,0,3.141-0.989,3.853-2.252l6.942-12.324
		C69.281,41.354,69.174,39.403,68.311,38.201z M34.615,47.981l-3.399-5.538c-0.369-0.601-0.337-1.673,0.065-2.251l3.334-4.785
		V47.981z M57.446,35.483l3.281,4.708c0.402,0.578,0.434,1.65,0.065,2.251l-3.346,5.451V35.483z"/>
</g>
</svg>